<svg xmlns="http://www.w3.org/2000/svg" viewBox="0 0 1042 575" width="1042" height="575">
	<defs>
		<clipPath clipPathUnits="userSpaceOnUse" id="cp1">
			<path d="M0 -154L1042 -154L1042 888L0 888Z" />
		</clipPath>
	</defs>
	<style>
		tspan { white-space:pre }
		.shp0 { fill: #33398e } 
		.shp1 { fill: #ffffff } 
		.shp2 { fill: #7670b9 } 
		.shp3 { fill: #b7acd6 } 
		.shp4 { fill: #54cce2 } 
		.shp5 { fill: #88b5df } 
		.shp6 { fill: #4996d1 } 
		.shp7 { fill: #3083c7 } 
		.shp8 { fill: #5181c4 } 
		.shp9 { fill: #41c0ec } 
	</style>
	<g id="Page 1" clip-path="url(#cp1)">
		<path id="Path 3" class="shp0" d="M201.1 178.77C164.37 190.63 121.84 209.08 115.03 247.07C110.6 271.81 124.97 297.72 146.62 310.5C157.19 316.75 170.16 321.14 175.69 332.1C184.28 349.12 168.84 368.65 152.55 378.55C136.25 388.45 116.37 396.3 108.95 413.87C104.06 425.45 105.97 438.94 110.81 450.54C128.57 493.07 180.34 511.7 226.37 509.43C272.41 507.15 316.08 489.21 361.24 479.98C516.32 448.27 678.91 520.25 833.73 487.26C857.82 482.13 882.09 474.1 900.7 457.96C921.67 439.76 933.58 412.32 935.37 384.61C937.09 358.18 927.72 328.42 904.06 316.51C890.23 309.55 873.71 309.83 858.7 313.62C849.12 316.03 839.7 319.82 829.81 319.89C819.93 319.95 809.05 315 806.19 305.54C803.18 295.59 810.04 285.32 817.91 278.53C833.92 264.73 855.33 257.83 869.87 242.49C883.86 227.72 889.75 205.71 885 185.93C880.25 166.15 865.01 149.22 845.84 142.41C796.99 125.07 743.76 172.35 693.8 158.5C690.09 157.47 686.19 155.88 684.24 152.56C682.33 149.33 682.77 145.22 683.86 141.63C689.98 121.51 713.75 108.7 714.79 87.7C715.36 76.28 708.61 65.6 700.1 57.97C641.64 5.51 556.93 67.91 497.32 87.61C399.3 120 299.38 147.05 201.1 178.77Z" />
		<path id="Path 4" class="shp1" d="M438.13 345.37C438.12 345.36 438.13 345.34 438.14 345.34L452.21 337.02C452.22 337.01 452.22 337 452.22 336.99C452.22 336.99 450.67 332.82 449.63 330.61C448.59 328.41 447.49 326.32 446.34 324.36C443.94 320.32 438.23 313.32 438.23 313.32C438.22 313.31 438.2 313.3 438.19 313.31L424.12 321.63C424.11 321.63 424.1 321.63 424.09 321.62L405.59 290.31C405.58 290.3 405.57 290.29 405.55 290.3C405.55 290.3 400.58 292.58 398.12 293.78C395.65 294.97 393.24 296.26 390.89 297.65C388.67 298.96 386.57 300.34 384.6 301.77C382.62 303.2 378.55 306.26 378.55 306.26C378.54 306.27 378.54 306.28 378.55 306.29L397.06 337.6C397.06 337.61 397.06 337.63 397.05 337.63L369.06 354.17C369.05 354.18 369.05 354.18 369.05 354.16L361 248.45C361 248.44 360.99 248.43 360.98 248.43C360.98 248.43 350.5 247.89 345.58 248.95C340.65 250.01 331.09 253.69 331.09 253.69C331.08 253.69 331.07 253.7 331.07 253.71L341.86 398.52C341.86 398.53 341.87 398.55 341.88 398.55L345.23 400.23C345.24 400.24 345.26 400.24 345.26 400.23L411.06 361.34C411.07 361.34 411.09 361.34 411.09 361.35L427.28 388.74C427.29 388.75 427.3 388.76 427.31 388.75C427.31 388.75 432.28 386.47 434.75 385.28C437.22 384.08 439.63 382.79 441.98 381.4C444.2 380.09 446.3 378.72 448.27 377.29C450.24 375.86 454.31 372.79 454.31 372.79C454.32 372.78 454.33 372.77 454.32 372.76L438.13 345.37ZM706.03 333.23C703.82 331.61 701.56 330.08 699.23 328.65C697.03 327.3 694.84 326.09 692.65 325.01C690.46 323.93 685.85 321.76 685.85 321.76C685.84 321.76 685.83 321.76 685.82 321.77L666.78 352.76C666.78 352.77 666.76 352.78 666.75 352.77L639.06 335.76C639.05 335.75 639.05 335.74 639.06 335.73L728.78 279.24C728.79 279.24 728.79 279.22 728.78 279.21C728.78 279.21 724.36 269.7 721.13 265.84C717.89 261.98 710.17 255.24 710.17 255.24C710.16 255.23 710.15 255.23 710.14 255.24L587.14 332.41C587.13 332.42 587.12 332.43 587.12 332.44L587.2 336.19C587.2 336.21 587.2 336.22 587.21 336.23L652.34 376.24C652.34 376.24 652.35 376.26 652.34 376.27L635.68 403.38C635.68 403.39 635.68 403.4 635.69 403.41C635.69 403.41 640.03 406.74 642.24 408.36C644.44 409.99 646.71 411.51 649.04 412.95C651.24 414.29 653.43 415.51 655.62 416.59C657.8 417.66 662.41 419.83 662.41 419.83C662.42 419.84 662.44 419.83 662.45 419.82L679.1 392.71C679.11 392.7 679.12 392.69 679.13 392.7L693.06 401.26C693.07 401.27 693.08 401.26 693.09 401.25C693.09 401.25 696.06 397.94 697.52 395.99C698.99 394.04 700.32 392.09 701.51 390.16C703.97 386.15 707.49 377.82 707.49 377.82C707.49 377.81 707.49 377.8 707.48 377.79L693.55 369.24C693.54 369.23 693.54 369.22 693.54 369.21L712.58 338.21C712.59 338.21 712.59 338.19 712.58 338.19C712.58 338.19 708.24 334.86 706.03 333.23Z" />
		<path id="Path 5" class="shp2" d="M592.64 301.21C592.64 340.87 560.49 373.02 520.83 373.02C481.17 373.02 449.02 340.87 449.02 301.21C449.02 261.55 481.17 229.4 520.83 229.4C560.49 229.4 592.64 261.55 592.64 301.21Z" />
		<path id="Path 6" class="shp3" d="M449.6 292.27C470.9 295.3 506.72 280.08 518.2 277.86C541.54 273.33 565.51 278.72 589.3 279.51C587.65 274.31 585.42 269.37 582.7 264.75C573.95 265.11 564.73 263.6 555.9 263.34C539.14 262.85 522.48 267.25 505.75 266.24C498.02 265.77 480.61 259 464.79 256.34C456.69 266.44 451.27 278.77 449.6 292.27ZM520.83 229.4C513.54 229.4 506.5 230.49 499.86 232.52C508.86 237.65 526.89 239.5 531.08 240.06C538.6 241.06 546.77 241.42 553.23 237.44C553.31 237.38 553.4 237.32 553.49 237.26C543.69 232.25 532.6 229.4 520.83 229.4ZM592.62 302.21C571.93 296.98 550.02 296.56 529.17 301.11C517.84 303.59 506.87 307.48 495.61 310.25C481.46 313.74 466.86 315.43 452.29 315.32C451.67 315.31 451.04 315.29 450.41 315.26C453.26 329.63 460.39 342.44 470.42 352.34C487.62 346.24 504.14 338.25 519.58 328.52C533.08 320.02 546.59 309.89 562.49 308.43C572.35 307.53 582.05 310.1 591.82 312.12C592.31 308.88 592.57 305.57 592.62 302.21ZM588.81 324.34C579.07 322.9 561.66 331.46 557.4 335.07C553.6 338.3 550.39 342.23 546.28 345.06C541.06 348.65 534.76 350.21 528.63 351.79C516.26 354.98 503.98 358.53 491.81 362.41C490.26 362.91 488.59 363.59 487.83 364.98C497.72 370.11 508.93 373.02 520.83 373.02C529.16 373.02 537.15 371.58 544.59 368.98C552.04 358.34 556.49 344.55 568.29 339.55C570.28 338.71 577.29 337.71 583.61 336.07C585.68 332.35 587.42 328.43 588.81 324.34Z" />
		<path id="Path 7" class="shp1" d="M735.26 514.75C717.42 419.3 633.68 347.04 533.05 347.04C432.42 347.04 348.68 419.3 330.84 514.75L735.26 514.75Z" />
		<path id="Path 8" class="shp4" d="M570.75 464.86C569.8 472.07 558.63 476.55 545.8 474.86C532.97 473.16 523.34 465.95 524.3 458.74C525.25 451.53 536.41 447.06 549.24 448.75C562.07 450.44 571.7 457.66 570.75 464.86Z" />
		<path id="Path 9" class="shp5" d="M409.57 178.81C409.57 193.48 397.68 205.37 383.01 205.37C368.34 205.37 356.44 193.48 356.44 178.81C356.44 164.14 368.34 152.25 383.01 152.25C397.68 152.25 409.57 164.14 409.57 178.81Z" />
		<path id="Path 10" class="shp6" d="M383.01 152.25C378.28 152.25 373.86 153.5 370.01 155.66C370.21 155.98 370.42 156.28 370.66 156.53C373.35 159.24 379.74 159.35 383.31 159.52C388.53 159.77 393.8 159.08 398.77 157.47C394.36 154.2 388.92 152.25 383.01 152.25ZM403.32 166.46C404.2 166.15 405.09 165.83 405.89 165.37C405.2 164.2 404.44 163.07 403.59 162.03C400.94 163.22 398.29 164.4 395.64 165.59C393.58 166.51 391.52 167.44 389.34 168.01C386.13 168.85 382.77 168.9 379.45 168.88C372.57 168.82 365.84 168.17 359.04 167.42C357.39 170.87 356.44 174.73 356.44 178.81C356.44 180.74 356.66 182.62 357.05 184.44C358.46 183.89 359.69 182.97 360.96 182.16C364.36 180.02 368.19 178.68 371.98 177.36C382.42 173.73 392.87 170.09 403.32 166.46ZM407.42 168.34C405.36 170.18 403.84 172.62 401.59 174.37C399.23 176.22 396.6 177.73 393.81 178.82C391.84 179.6 389.79 180.17 387.9 181.12C387.2 181.48 386.46 181.97 386.29 182.74C385.98 184.09 387.58 185.07 388.93 185.39C391.62 186.01 394.42 185.9 397.18 185.78C400.45 185.64 403.72 185.49 407 185.35C407.58 185.33 408.17 185.28 408.76 185.21C409.27 183.16 409.57 181.02 409.57 178.81C409.57 175.09 408.8 171.55 407.42 168.34ZM383.7 178.09C378.98 179.04 374.36 180.55 369.99 182.57C367.07 183.91 364.24 185.5 361.16 186.43C360.29 186.7 359.06 186.8 357.69 186.86C359.26 191.8 362.23 196.11 366.13 199.33C366.4 199 366.67 198.67 366.92 198.33C370.89 193.06 373.59 186.4 379.33 183.12C380.37 182.53 381.5 182.05 382.41 181.27C383.32 180.48 383.98 179.26 383.7 178.09ZM406.99 190.16C406.69 190.13 406.39 190.12 406.11 190.13C400.44 190.45 394.77 190.76 389.1 191.07C385.57 191.27 381.85 191.53 378.94 193.51C376.68 195.04 375.18 197.42 373.74 199.73C373.26 200.52 372.38 201.6 371.56 202.76C374.84 204.32 378.47 205.24 382.32 205.34C383.01 204.47 383.64 203.53 384.31 202.64C388.11 197.62 394.04 194.26 400.29 193.6C401.95 193.42 403.63 193.42 405.29 193.24C405.92 192.26 406.49 191.23 406.99 190.16Z" />
		<path id="Path 11" class="shp7" d="M407.38 189.36C408.06 187.78 408.6 186.13 408.96 184.41C402.13 186.85 394.04 189.01 385.41 190.68C376.67 192.38 368.29 193.4 360.98 193.67C361.96 195.11 363.08 196.45 364.31 197.67C371.04 197.25 378.49 196.27 386.21 194.77C393.82 193.3 401.03 191.45 407.38 189.36Z" />
		<path id="Path 12" class="shp1" d="M356.96 195.81C347.44 195.81 339.67 194.3 338.78 189.72C337.95 185.41 343.58 180.93 355.52 176.42C356.59 176.01 357.8 176.55 358.21 177.63C358.61 178.71 358.07 179.91 356.99 180.32C344.9 184.89 342.76 188.33 342.88 188.93C343.32 191.21 358.32 193.85 385.41 188.6C396.78 186.4 407.26 183.34 414.91 180C423.67 176.17 425.1 173.52 425 173.02C424.88 172.39 421.45 169.93 407.84 170.33C406.72 170.37 405.73 169.45 405.69 168.3C405.66 167.16 406.56 166.2 407.71 166.16C421.03 165.76 428.24 167.81 429.09 172.23C429.83 176.03 425.74 179.82 416.58 183.82C408.66 187.28 397.87 190.43 386.21 192.69C378.3 194.22 366.71 195.81 356.96 195.81Z" />
		<path id="Path 13" class="shp8" d="M812.87 238.48C807.25 248.87 794.26 252.74 783.87 247.11C773.48 241.49 769.61 228.5 775.24 218.11C780.87 207.72 793.85 203.85 804.24 209.48C814.64 215.1 818.5 228.09 812.87 238.48Z" />
		<path id="Path 14" class="shp9" d="M804.24 209.48C800.9 207.67 797.29 206.85 793.74 206.91C793.75 207.21 793.78 207.5 793.86 207.78C794.72 210.73 799.21 213.26 801.67 214.75C805.28 216.93 809.27 218.46 813.41 219.22C811.54 215.21 808.43 211.74 804.24 209.48ZM813.19 227.33C813.92 227.45 814.68 227.57 815.42 227.54C815.38 226.45 815.28 225.36 815.07 224.3C812.74 224.12 810.41 223.95 808.08 223.77C806.27 223.64 804.45 223.5 802.69 223.07C800.09 222.43 797.69 221.18 795.35 219.89C790.5 217.21 785.98 214.17 781.45 211.03C778.96 212.85 776.81 215.22 775.24 218.11C774.5 219.48 773.93 220.89 773.52 222.33C774.72 222.48 775.94 222.3 777.16 222.22C780.39 222 783.61 222.52 786.8 223.04C795.6 224.47 804.39 225.9 813.19 227.33ZM815.36 230.24C813.2 230.75 811.19 231.89 808.92 232.27C806.54 232.68 804.1 232.74 801.71 232.44C800.02 232.24 798.34 231.86 796.64 231.81C796.01 231.79 795.3 231.86 794.88 232.33C794.14 233.18 794.9 234.48 795.74 235.22C797.4 236.7 799.43 237.69 801.43 238.66C803.8 239.82 806.17 240.97 808.55 242.12C808.97 242.33 809.41 242.52 809.85 242.7C811 241.44 812.03 240.04 812.87 238.48C814.3 235.85 815.11 233.04 815.36 230.24ZM794.83 228.05C791.11 226.91 787.27 226.21 783.4 225.96C780.81 225.8 778.2 225.84 775.66 225.32C774.94 225.17 774.04 224.77 773.04 224.29C772.26 228.39 772.7 232.58 774.24 236.35C774.56 236.23 774.87 236.1 775.18 235.96C780.02 233.74 784.48 230.06 789.8 229.94C790.77 229.91 791.75 230.01 792.69 229.8C793.64 229.59 794.57 228.99 794.83 228.05ZM806.7 245.53C806.5 245.39 806.29 245.27 806.09 245.17C801.95 243.22 797.81 241.27 793.67 239.32C791.1 238.1 788.36 236.86 785.54 237.15C783.36 237.37 781.38 238.48 779.47 239.56C778.83 239.93 777.79 240.36 776.77 240.87C778.49 243.23 780.71 245.28 783.4 246.82C784.23 246.47 785.03 246.05 785.85 245.67C790.46 243.57 795.95 243.47 800.64 245.4C801.88 245.91 803.07 246.55 804.31 247.06C805.14 246.61 805.93 246.09 806.7 245.53Z" />
		<path id="Path 15" class="shp1" d="M375.38 428.25L348.18 479.85L340.69 475.91C336.68 473.79 335.15 468.83 337.26 464.83L356.81 427.74C358.92 423.73 363.89 422.19 367.89 424.3L375.38 428.25ZM716.24 478.78L700.01 438.15L707.87 435.01C712.08 433.33 716.85 435.38 718.53 439.59L728.68 464.98C730.35 469.19 728.31 473.96 724.1 475.64L716.24 478.78ZM464.21 364.92L416.83 398.95L411.89 392.07C409.25 388.39 410.09 383.27 413.77 380.62L447.82 356.17C451.5 353.53 456.63 354.37 459.27 358.05L464.21 364.92ZM678.9 421.28L632.36 386.1L637.47 379.35C640.2 375.73 645.35 375.02 648.96 377.75L682.41 403.04C686.02 405.77 686.73 410.91 684 414.52L678.9 421.28Z" />
		<path id="Path 16" class="shp4" d="M466.48 399.9C470.12 407.08 459.98 419.55 443.82 427.75C427.66 435.96 411.61 436.79 407.96 429.6C404.31 422.42 414.46 409.95 430.62 401.75C446.78 393.54 462.83 392.71 466.48 399.9Z" />
		<path id="Path 17" class="shp0" d="M432.7 408C447.3 400.59 461.77 399.22 467.13 404.31C467.34 402.7 467.14 401.21 466.48 399.9C462.83 392.71 446.78 393.54 430.62 401.75C414.46 409.95 404.31 422.42 407.96 429.6C408.31 430.3 408.81 430.9 409.39 431.44C410.32 424.25 419.5 414.7 432.7 408Z" />
		<path id="Path 18" class="shp4" d="M664.11 424.62C661.24 429.21 650.56 427.69 640.24 421.24C629.93 414.79 623.89 405.85 626.76 401.27C629.62 396.68 640.31 398.19 650.62 404.64C660.94 411.09 666.98 420.04 664.11 424.62Z" />
		<path id="Path 19" class="shp0" d="M647.75 408C657.07 413.83 662.87 421.68 661.8 426.53C662.8 426.09 663.59 425.46 664.11 424.62C666.98 420.04 660.94 411.09 650.62 404.64C640.31 398.19 629.62 396.68 626.76 401.27C626.48 401.71 626.31 402.2 626.2 402.72C630.65 400.76 639.32 402.74 647.75 408ZM549.24 448.75C536.41 447.06 525.25 451.53 524.3 458.74C524.23 459.26 524.23 459.79 524.27 460.31C527.05 454.49 537.11 451.12 548.5 452.63C560.4 454.2 569.53 460.52 570.04 467.18C570.39 466.44 570.64 465.67 570.75 464.86C571.7 457.66 562.07 450.44 549.24 448.75Z" />
		<path id="Path 20" class="shp4" d="M237.22 270.83C237.22 274.57 234.19 277.6 230.45 277.6C226.71 277.6 223.68 274.57 223.68 270.83C223.68 267.09 226.71 264.06 230.45 264.06C234.19 264.06 237.22 267.09 237.22 270.83ZM623.94 85.41C622.26 85.41 620.9 84.05 620.9 82.37C620.9 80.7 622.26 79.34 623.94 79.34C625.61 79.34 626.97 80.7 626.97 82.37C626.97 84.05 625.61 85.41 623.94 85.41ZM666.99 141.75C665.32 141.75 663.96 140.39 663.96 138.71C663.96 137.03 665.32 135.67 666.99 135.67C668.67 135.67 670.03 137.03 670.03 138.71C670.03 140.39 668.67 141.75 666.99 141.75ZM159.61 240.62C157.94 240.62 156.58 239.26 156.58 237.58C156.58 235.9 157.94 234.54 159.61 234.54C161.29 234.54 162.65 235.9 162.65 237.58C162.65 239.26 161.29 240.62 159.61 240.62Z" />
		<path id="Path 21" class="shp1" d="M594 192.1C594 194.26 592.25 196.01 590.09 196.01C587.93 196.01 586.18 194.26 586.18 192.1C586.18 189.94 587.93 188.19 590.09 188.19C592.25 188.19 594 189.94 594 192.1ZM758.32 371.79C758.32 373.94 756.57 375.7 754.41 375.7C752.25 375.7 750.5 373.94 750.5 371.79C750.5 369.63 752.25 367.87 754.41 367.87C756.57 367.87 758.32 369.63 758.32 371.79ZM873.69 378.29C873.69 380.45 871.94 382.2 869.78 382.2C867.62 382.2 865.86 380.45 865.86 378.29C865.86 376.13 867.62 374.38 869.78 374.38C871.94 374.38 873.69 376.13 873.69 378.29ZM258.32 435.33C258.32 437.49 256.57 439.24 254.41 439.24C252.25 439.24 250.5 437.49 250.5 435.33C250.5 433.17 252.25 431.42 254.41 431.42C256.57 431.42 258.32 433.17 258.32 435.33ZM484.1 152.25C484.1 154.41 482.35 156.16 480.19 156.16C478.03 156.16 476.28 154.41 476.28 152.25C476.28 150.09 478.03 148.34 480.19 148.34C482.35 148.34 484.1 150.09 484.1 152.25ZM436.69 247.28L441.9 250.26L436.58 253.04L433.6 258.25L430.82 252.93L425.6 249.95L430.93 247.17L433.9 241.96L436.69 247.28ZM682.26 192.42L685.66 194.36L682.19 196.18L680.25 199.58L678.43 196.11L675.02 194.16L678.5 192.35L680.44 188.94L682.26 192.42ZM280.52 355.78L283.92 357.73L280.45 359.54L278.5 362.95L276.69 359.47L273.28 357.53L276.76 355.71L278.7 352.31L280.52 355.78ZM282.46 216.96L285.87 218.91L282.39 220.72L280.45 224.13L278.63 220.65L275.23 218.71L278.7 216.89L280.65 213.49L282.46 216.96ZM178.36 424.12L181.77 426.07L178.29 427.89L176.35 431.29L174.53 427.82L171.13 425.87L174.6 424.05L176.55 420.65L178.36 424.12ZM796.78 328.07L800.18 330.02L796.71 331.83L794.76 335.24L792.95 331.76L789.54 329.82L793.02 328L794.96 324.6L796.78 328.07ZM838.78 465.1L842.19 467.04L838.71 468.86L836.77 472.26L834.95 468.79L831.55 466.84L835.02 465.03L836.96 461.62L838.78 465.1Z" />
	</g>
</svg>